<svg xmlns="http://www.w3.org/2000/svg" data-name="Layer 1" viewBox="0 0 512 640" x="0px" y="0px"><title>3177 - Wheel</title><path d="M256,428.88c-95.33,0-172.88-77.55-172.88-172.88S160.67,83.12,256,83.12,428.88,160.67,428.88,256,351.33,428.88,256,428.88Zm0-329.76C169.49,99.12,99.12,169.49,99.12,256S169.49,412.88,256,412.88,412.88,342.51,412.88,256,342.51,99.12,256,99.12Z"/><path d="M275,489H237a8,8,0,0,1-8-8v-7.12c-4.9-.6-9.77-1.36-14.58-2.28l-2.19,6.74a8,8,0,0,1-10.08,5.14l-36.22-11.77a8,8,0,0,1-5.14-10.08l2.19-6.73q-6.67-3.13-13.15-6.72l-4.17,5.74a8,8,0,0,1-11.17,1.77l-30.81-22.38a8,8,0,0,1-1.77-11.17l4.19-5.77c-3.58-3.36-7.07-6.85-10.43-10.43l-5.76,4.19a8,8,0,0,1-11.18-1.77L56.31,377.55a8,8,0,0,1,1.77-11.17l5.74-4.17q-3.59-6.46-6.72-13.15l-6.73,2.19a8,8,0,0,1-10.08-5.14L28.52,309.89a8,8,0,0,1,5.14-10.08l6.74-2.19c-.92-4.81-1.68-9.68-2.28-14.58H31a8,8,0,0,1-8-8V237a8,8,0,0,1,8-8h7.12c.6-4.9,1.36-9.77,2.28-14.58l-6.74-2.19a8,8,0,0,1-5.14-10.08l11.77-36.22a8,8,0,0,1,10.08-5.14l6.73,2.19c2.09-4.44,4.33-8.84,6.72-13.15l-5.74-4.17a8,8,0,0,1-1.77-11.17l22.38-30.81a8,8,0,0,1,11.18-1.77l5.76,4.19c3.36-3.58,6.85-7.07,10.43-10.43l-4.19-5.76a8,8,0,0,1,1.77-11.18l30.81-22.38a8,8,0,0,1,11.17,1.77l4.17,5.74q6.47-3.59,13.15-6.72l-2.19-6.73a8,8,0,0,1,5.14-10.08l36.22-11.77a8,8,0,0,1,10.08,5.14l2.19,6.74c4.81-.92,9.69-1.68,14.58-2.28V31a8,8,0,0,1,8-8H275a8,8,0,0,1,8,8v7.12c4.89.6,9.77,1.36,14.58,2.28l2.19-6.74a8,8,0,0,1,10.08-5.14l36.22,11.77a8,8,0,0,1,5.14,10.08l-2.19,6.73q6.68,3.13,13.15,6.72l4.17-5.74a8,8,0,0,1,11.17-1.77l30.81,22.38a8,8,0,0,1,1.77,11.18l-4.19,5.76c3.58,3.36,7.07,6.85,10.43,10.43l5.76-4.19a8,8,0,0,1,11.18,1.77l22.38,30.81a8,8,0,0,1-1.77,11.17l-5.74,4.17c2.39,4.31,4.63,8.71,6.72,13.15l6.73-2.19a8,8,0,0,1,10.08,5.14l11.77,36.22a8,8,0,0,1-5.14,10.08l-6.74,2.19c.92,4.81,1.68,9.68,2.28,14.58H481a8,8,0,0,1,8,8V275a8,8,0,0,1-8,8h-7.12c-.6,4.9-1.36,9.77-2.28,14.58l6.74,2.19a8,8,0,0,1,5.14,10.08l-11.77,36.22a8,8,0,0,1-10.08,5.14l-6.73-2.19q-3.13,6.68-6.72,13.15l5.74,4.17a8,8,0,0,1,1.77,11.17l-22.38,30.81a8,8,0,0,1-11.18,1.77l-5.76-4.19c-3.36,3.58-6.85,7.07-10.43,10.43l4.19,5.77a8,8,0,0,1-1.77,11.17l-30.81,22.38a8,8,0,0,1-11.17-1.77l-4.17-5.74q-6.46,3.58-13.15,6.72l2.19,6.73a8,8,0,0,1-5.14,10.08l-36.22,11.77a8,8,0,0,1-10.08-5.14l-2.19-6.74c-4.81.92-9.68,1.68-14.58,2.28V481A8,8,0,0,1,275,489ZM245,473H267v-6.31a8,8,0,0,1,7.29-8,203.72,203.72,0,0,0,26.91-4.22,8,8,0,0,1,9.38,5.33l1.94,6,21-6.82-1.94-6a8,8,0,0,1,4.46-9.82,203.62,203.62,0,0,0,24.26-12.39A8,8,0,0,1,370.92,433l3.7,5.09,17.86-13L388.77,420a8,8,0,0,1,1.2-10.72A206.16,206.16,0,0,0,409.24,390a8,8,0,0,1,10.72-1.2l5.11,3.71,13-17.86-5.09-3.7a8,8,0,0,1-2.16-10.58,203.62,203.62,0,0,0,12.39-24.26,8,8,0,0,1,9.82-4.46l6,1.94,6.82-21-6-1.94a8,8,0,0,1-5.33-9.38,204,204,0,0,0,4.22-26.91,8,8,0,0,1,8-7.29H473V245h-6.31a8,8,0,0,1-8-7.29,204,204,0,0,0-4.22-26.91,8,8,0,0,1,5.33-9.38l6-1.94-6.82-21-6,1.94a8,8,0,0,1-9.82-4.46,203.62,203.62,0,0,0-12.39-24.26A8,8,0,0,1,433,141.08l5.09-3.7-13-17.86L420,123.23a8,8,0,0,1-10.72-1.2A206.16,206.16,0,0,0,390,102.76,8,8,0,0,1,388.77,92l3.71-5.11L374.62,74,370.92,79a8,8,0,0,1-10.58,2.16,203.62,203.62,0,0,0-24.26-12.39A8,8,0,0,1,331.62,59l1.94-6-21-6.82-1.94,6a8,8,0,0,1-9.38,5.33,204,204,0,0,0-26.91-4.22,8,8,0,0,1-7.29-8V39H245v6.31a8,8,0,0,1-7.29,8,204,204,0,0,0-26.91,4.22,8,8,0,0,1-9.38-5.33l-1.94-6-21,6.82,1.94,6a8,8,0,0,1-4.46,9.82A203.62,203.62,0,0,0,151.66,81.2,8,8,0,0,1,141.08,79L137.38,74l-17.86,13L123.23,92a8,8,0,0,1-1.2,10.72A206.16,206.16,0,0,0,102.76,122,8,8,0,0,1,92,123.23l-5.11-3.71L74,137.38l5.09,3.7a8,8,0,0,1,2.16,10.58,203.62,203.62,0,0,0-12.39,24.26A8,8,0,0,1,59,180.38l-6-1.94-6.82,21,6,1.94a8,8,0,0,1,5.33,9.38,204,204,0,0,0-4.22,26.91,8,8,0,0,1-8,7.29H39V267h6.31a8,8,0,0,1,8,7.29,204,204,0,0,0,4.22,26.91,8,8,0,0,1-5.33,9.38l-6,1.94,6.82,21,6-1.94a8,8,0,0,1,9.82,4.46A203.62,203.62,0,0,0,81.2,360.34,8,8,0,0,1,79,370.92L74,374.62l13,17.86L92,388.77a8,8,0,0,1,10.72,1.2A206.16,206.16,0,0,0,122,409.24a8,8,0,0,1,1.2,10.72l-3.71,5.11,17.86,13,3.7-5.09a8,8,0,0,1,10.58-2.16,203.62,203.62,0,0,0,24.26,12.39,8,8,0,0,1,4.46,9.82l-1.94,6,21,6.82,1.94-6a8,8,0,0,1,9.38-5.33,203.72,203.72,0,0,0,26.91,4.22,8,8,0,0,1,7.29,8Z"/><path d="M256,317.31A61.31,61.31,0,1,1,317.31,256,61.37,61.37,0,0,1,256,317.31Zm0-106.62A45.31,45.31,0,1,0,301.31,256,45.37,45.37,0,0,0,256,210.69Z"/><path d="M281.52,142.4h-51a8,8,0,0,1-7.74-6L212.52,97A8,8,0,0,1,228,93l8.66,33.39h38.66L284,93a8,8,0,0,1,15.49,4l-10.22,39.38A8,8,0,0,1,281.52,142.4Z"/><path d="M137.94,225.3a7.88,7.88,0,0,1-2.14-.29L96.59,214.17a8,8,0,0,1,4.26-15.42l33.25,9.19,19.33-33.48-24.59-24.2a8,8,0,1,1,11.23-11.4l29,28.54a8,8,0,0,1,1.32,9.7l-25.52,44.2A8,8,0,0,1,137.94,225.3Z"/><path d="M134.46,375.44a8,8,0,0,1-5.62-13.7l24.59-24.2L134.1,304.06l-33.25,9.19a8,8,0,0,1-4.26-15.42L135.8,287a8,8,0,0,1,9.06,3.71l25.52,44.2a8,8,0,0,1-1.32,9.7l-29,28.54A8,8,0,0,1,134.46,375.44Z"/><path d="M291.73,425a8,8,0,0,1-7.74-6l-8.66-33.39H236.67L228,419a8,8,0,0,1-15.49-4l10.22-39.38a8,8,0,0,1,7.74-6h51a8,8,0,0,1,7.74,6L299.48,415a8,8,0,0,1-5.73,9.75A7.83,7.83,0,0,1,291.73,425Z"/><path d="M377.54,375.44a8,8,0,0,1-5.61-2.3l-29-28.54a8,8,0,0,1-1.32-9.7l25.52-44.2A8,8,0,0,1,376.2,287l39.21,10.84a8,8,0,0,1-4.26,15.42l-33.25-9.19-19.33,33.48,24.59,24.2a8,8,0,0,1-5.62,13.7Z"/><path d="M374.06,225.3a8,8,0,0,1-6.92-4l-25.52-44.2a8,8,0,0,1,1.32-9.7l29-28.54a8,8,0,1,1,11.23,11.4l-24.59,24.2,19.33,33.48,33.25-9.19a8,8,0,1,1,4.26,15.42L376.2,225A7.88,7.88,0,0,1,374.06,225.3Z"/><path d="M280.77,216.79a8,8,0,0,1-7.94-7.1l-8.42-74.38a8,8,0,0,1,15.9-1.8l8.42,74.38a8,8,0,0,1-7.05,8.85C281.38,216.77,281.07,216.79,280.77,216.79Z"/><path d="M231.22,216.79c-.3,0-.6,0-.91,0a8,8,0,0,1-7.05-8.85l8.44-74.38a8,8,0,1,1,15.89,1.8l-8.43,74.38A8,8,0,0,1,231.22,216.79Z"/><path d="M202.74,261.89a7.93,7.93,0,0,1-4.75-1.57l-60.23-44.5A8,8,0,0,1,147.27,203l60.23,44.5a8,8,0,0,1-4.76,14.44Z"/><path d="M227.51,218.93a7.84,7.84,0,0,1-3.19-.67l-68.64-29.9a8,8,0,0,1,6.39-14.67l68.64,29.9a8,8,0,0,1-3.2,15.34Z"/><path d="M158.88,339a8,8,0,0,1-3.2-15.34l68.64-29.9a8,8,0,0,1,6.39,14.67l-68.64,29.9A8,8,0,0,1,158.88,339Z"/><path d="M142.52,310.62a8,8,0,0,1-4.76-14.44L198,251.68a8,8,0,1,1,9.51,12.86l-60.23,44.51A8,8,0,0,1,142.52,310.62Z"/><path d="M272.37,385.59a7,7,0,0,1-.91,0,8,8,0,0,1-7-8.85l8.42-74.38a8,8,0,0,1,15.9,1.8l-8.42,74.38A8,8,0,0,1,272.37,385.59Z"/><path d="M239.63,385.59a8,8,0,0,1-7.93-7.1l-8.44-74.38a8,8,0,1,1,15.9-1.8l8.43,74.38a8,8,0,0,1-7,8.85A7.09,7.09,0,0,1,239.63,385.59Z"/><path d="M353.11,339a8,8,0,0,1-3.19-.67l-68.64-29.9a8,8,0,1,1,6.39-14.67l68.64,29.9a8,8,0,0,1-3.2,15.34Z"/><path d="M369.49,310.62a8,8,0,0,1-4.75-1.57l-60.23-44.49a8.39,8.39,0,0,1-.9-.78,8,8,0,0,1,10.58-12l60.06,44.36a8,8,0,0,1-4.76,14.44Z"/><path d="M309.26,261.88a8,8,0,0,1-5.55-13.76h0a8.47,8.47,0,0,1,.79-.67L364.74,203a8,8,0,1,1,9.51,12.87l-60.14,44.43A8,8,0,0,1,309.26,261.88Z"/><path d="M284.48,218.93a8,8,0,0,1-3.2-15.34l68.64-29.9a8,8,0,1,1,6.39,14.67l-68.64,29.9A7.84,7.84,0,0,1,284.48,218.93Z"/><text x="0" y="527" fill="#000000" font-size="5px" font-weight="bold" font-family="'Helvetica Neue', Helvetica, Arial-Unicode, Arial, Sans-serif">Created by Designing Hub</text><text x="0" y="532" fill="#000000" font-size="5px" font-weight="bold" font-family="'Helvetica Neue', Helvetica, Arial-Unicode, Arial, Sans-serif">from the Noun Project</text></svg>